<svg width="18" height="18" viewBox="0 0 18 18" fill="none" xmlns="http://www.w3.org/2000/svg">
<path d="M8.9375 0C4.0096 0 0 4.0096 0 8.9375C0 13.8654 4.0096 17.875 8.9375 17.875C13.8654 17.875 17.875 13.8654 17.875 8.9375C17.875 4.0096 13.8654 0 8.9375 0ZM8.9375 1.375C13.1223 1.375 16.5 4.7527 16.5 8.9375C16.5 13.1223 13.1223 16.5 8.9375 16.5C4.7527 16.5 1.375 13.1223 1.375 8.9375C1.375 4.7527 4.7527 1.375 8.9375 1.375ZM11.0215 3.94641C10.3937 3.91257 9.6886 4.0125 8.99792 4.25793C7.90136 4.64775 6.71439 5.25906 5.86121 6.05725C4.84646 7.006 4.68404 7.83237 4.75073 8.17749C4.98586 9.39574 6.6555 10.1919 7.34094 10.7825V10.7852C7.13882 10.8848 5.65851 11.6346 5.31201 12.4005C4.94626 13.2083 5.36989 13.7884 5.65039 13.8668C6.51939 14.1088 7.41229 13.6741 7.89148 12.9591C8.35417 12.2689 8.31582 11.3776 8.11438 10.9342C8.39144 10.8613 8.71505 10.8283 9.12549 10.8765C10.2853 11.0119 10.5116 11.7361 10.4683 12.0393C10.4249 12.3425 10.1815 12.5088 10.1003 12.559C10.0192 12.6091 9.99544 12.6266 10.0023 12.6637C10.0119 12.718 10.0497 12.7157 10.1191 12.704C10.2147 12.6882 10.7282 12.4579 10.7502 11.8983C10.7784 11.1881 10.097 10.3939 8.89185 10.4146C8.39547 10.4228 8.08341 10.4703 7.85791 10.5542C7.84141 10.535 7.82407 10.5164 7.80688 10.4978C7.06163 9.70305 5.6846 9.14113 5.74304 8.07275C5.76435 7.68432 5.89952 6.66103 8.38965 5.42078C10.4295 4.40465 12.0622 4.68452 12.3441 5.30396C12.747 6.18946 11.4719 7.83557 9.35376 8.07275C8.54663 8.1635 8.12089 7.84991 8.01501 7.73303C7.90364 7.61066 7.88708 7.60561 7.84583 7.6283C7.77845 7.66611 7.82107 7.77449 7.84583 7.83911C7.90908 8.00342 8.16846 8.29561 8.61121 8.44067C9.00033 8.56855 9.94793 8.63838 11.094 8.19495C12.3776 7.69857 13.3803 6.31728 13.0853 5.16296C12.8984 4.42906 12.0678 4.00282 11.0215 3.94641ZM7.62561 11.1464C7.72186 11.5018 7.71187 11.8329 7.61218 12.1333C7.60118 12.167 7.58899 12.2004 7.57593 12.2327C7.56287 12.265 7.54808 12.2977 7.53296 12.3293C7.45665 12.4882 7.35396 12.637 7.22815 12.7738C6.84384 13.1925 6.3077 13.3516 6.07739 13.2183C5.82921 13.0739 5.9535 12.4827 6.39832 12.0125C6.8775 11.5058 7.56653 11.1813 7.56653 11.1813L7.56519 11.1786C7.58581 11.1683 7.60499 11.158 7.62561 11.1464Z" fill="#EF6393"/>
</svg>
