<svg width="26" height="17" viewBox="0 0 26 17" fill="none" xmlns="http://www.w3.org/2000/svg">
<path d="M0.5 1C0.5 0.723858 0.723858 0.5 1 0.5H25C25.2761 0.5 25.5 0.723858 25.5 1V16C25.5 16.2761 25.2761 16.5 25 16.5H1C0.723858 16.5 0.5 16.2761 0.5 16V1Z" stroke="#4B568C"/>
<path d="M3.74023 12V4.90002H6.75023C7.0769 4.90002 7.3769 4.97002 7.65023 5.11002C7.93023 5.24336 8.17023 5.42336 8.37023 5.65002C8.57023 5.87002 8.7269 6.12336 8.84023 6.41002C8.95357 6.69002 9.01023 6.97336 9.01023 7.26002C9.01023 7.56002 8.9569 7.85336 8.85023 8.14002C8.74357 8.42002 8.59357 8.67002 8.40023 8.89002C8.2069 9.11002 7.97357 9.28669 7.70023 9.42002C7.4269 9.55336 7.1269 9.62002 6.80023 9.62002H5.12023V12H3.74023ZM5.12023 8.41002H6.72023C6.97357 8.41002 7.18357 8.30669 7.35023 8.10002C7.52357 7.89336 7.61023 7.61336 7.61023 7.26002C7.61023 7.08002 7.58357 6.92002 7.53023 6.78002C7.4769 6.63336 7.4069 6.51002 7.32023 6.41002C7.23357 6.31002 7.13023 6.23669 7.01023 6.19002C6.8969 6.13669 6.78023 6.11002 6.66023 6.11002H5.12023V8.41002Z" fill="#4B568C"/>
<path d="M15.9407 4.90002V12H14.5707V8.97002H11.3507V12H9.9707V4.90002H11.3507V7.77002H14.5707V4.90002H15.9407Z" fill="#4B568C"/>
<path d="M17.4219 12V4.90002H20.4319C20.7585 4.90002 21.0585 4.97002 21.3319 5.11002C21.6119 5.24336 21.8519 5.42336 22.0519 5.65002C22.2519 5.87002 22.4085 6.12336 22.5219 6.41002C22.6352 6.69002 22.6919 6.97336 22.6919 7.26002C22.6919 7.56002 22.6385 7.85336 22.5319 8.14002C22.4252 8.42002 22.2752 8.67002 22.0819 8.89002C21.8885 9.11002 21.6552 9.28669 21.3819 9.42002C21.1085 9.55336 20.8085 9.62002 20.4819 9.62002H18.8019V12H17.4219ZM18.8019 8.41002H20.4019C20.6552 8.41002 20.8652 8.30669 21.0319 8.10002C21.2052 7.89336 21.2919 7.61336 21.2919 7.26002C21.2919 7.08002 21.2652 6.92002 21.2119 6.78002C21.1585 6.63336 21.0885 6.51002 21.0019 6.41002C20.9152 6.31002 20.8119 6.23669 20.6919 6.19002C20.5785 6.13669 20.4619 6.11002 20.3419 6.11002H18.8019V8.41002Z" fill="#4B568C"/>
</svg>
