<svg width="17" height="17" viewBox="0 0 17 17" fill="none" xmlns="http://www.w3.org/2000/svg">
<path d="M1.06719 0C0.482812 0 0 0.482812 0 1.06719V15.7328C0 16.3172 0.482812 16.8 1.06719 16.8H15.7328C16.3172 16.8 16.8 16.3187 16.8 15.7328V1.06719C16.8 0.482812 16.3187 0 15.7328 0H1.06719ZM1.06719 0.8H15.7328C15.8812 0.8 16 0.91875 16 1.06719V15.7328C16 15.8812 15.8812 16 15.7328 16H1.06719C0.91875 16 0.8 15.8812 0.8 15.7328V1.06719C0.8 0.91875 0.91875 0.8 1.06719 0.8ZM7.6 7.6V12.6297C7.6 13.4016 7.30781 13.6 6.8 13.6C6.26875 13.6 5.9 13.2687 5.65625 12.8391L4.4 13.6C4.76406 14.3703 5.65625 15.2 6.89375 15.2C8.2625 15.2 9.2 14.4719 9.2 12.8734V7.6H7.6ZM12.5812 7.6C11.2187 7.6 10.3453 8.47187 10.3453 9.61719C10.3453 10.8594 11.0781 11.4469 12.1797 11.9156L12.5609 12.0797C13.2562 12.3844 13.6 12.5703 13.6 13.0937C13.6 13.5297 13.2687 13.8453 12.6359 13.8453C11.8828 13.8453 11.5266 13.3344 11.2 12.8L10 13.6C10.4484 14.4859 11.2531 15.2 12.6703 15.2C14.1203 15.2 15.2 14.4469 15.2 13.0734C15.2 11.7984 14.4687 11.2312 13.1703 10.675L12.7891 10.5125C12.1344 10.2281 11.85 10.0437 11.85 9.58594C11.85 9.21562 12.1344 8.93125 12.5812 8.93125C13.0203 8.93125 13.3016 9.11719 13.5625 9.58594L14.7516 8.82344C14.25 7.9375 13.5516 7.6 12.5812 7.6Z" fill="#F2C03B"/>
</svg>
