<svg width="22" height="22" viewBox="0 0 22 22" fill="none" xmlns="http://www.w3.org/2000/svg">
<path d="M19.8507 16.367C18.6748 16.3351 17.7767 16.4444 17.0088 16.7682C16.7906 16.8603 16.4426 16.8627 16.407 17.1362C16.5269 17.2619 16.5456 17.4496 16.6409 17.6042C16.8242 17.9009 17.1338 18.2984 17.4099 18.507C17.7117 18.7347 18.0227 18.9784 18.3462 19.1756C18.9217 19.5266 19.5641 19.7269 20.1182 20.0784C20.4447 20.2856 20.7691 20.5466 21.0877 20.7804C21.2452 20.896 21.3511 21.0758 21.5557 21.1482C21.5557 21.1372 21.5557 21.126 21.5557 21.1148C21.4482 20.9779 21.4205 20.7897 21.3217 20.6467C21.1769 20.5019 21.032 20.357 20.8871 20.212C20.4621 19.648 19.9226 19.1525 19.3491 18.741C18.8919 18.4127 17.8683 17.9693 17.6774 17.437C17.6663 17.4259 17.6553 17.4147 17.6439 17.4035C17.9682 17.367 18.3479 17.2497 18.6471 17.1695C19.1498 17.0347 19.5991 17.0696 20.1182 16.9355C20.3522 16.8686 20.5862 16.8016 20.8204 16.7349C20.8204 16.6902 20.8204 16.6458 20.8204 16.6011C20.5579 16.3318 20.3708 15.9755 20.0847 15.7318C19.336 15.0943 18.5189 14.4574 17.6774 13.9263C17.2108 13.6317 16.634 13.4403 16.1395 13.1907C15.9731 13.1068 15.6809 13.0631 15.571 12.9232C15.3112 12.592 15.1697 12.1722 14.9693 11.7864C14.5496 10.9782 14.1374 10.0956 13.7657 9.24533C13.512 8.66552 13.3464 8.0937 13.0301 7.57353C11.512 5.07756 9.87784 3.57101 7.34639 2.09021C6.80778 1.77529 6.15924 1.65092 5.4739 1.48844C5.10629 1.46619 4.73838 1.44379 4.37061 1.42153C4.14614 1.32771 3.91258 1.05307 3.70196 0.919979C2.86336 0.390203 0.712334 -0.762144 0.0912011 0.752839C-0.300991 1.7091 0.67733 2.64224 1.02722 3.12677C1.27284 3.46671 1.58728 3.84782 1.76275 4.23009C1.87819 4.48132 1.89815 4.73326 1.9969 4.99915C2.23999 5.65402 2.45136 6.36649 2.7658 6.97176C2.92473 7.27797 3.0999 7.6006 3.30083 7.87449C3.42402 8.04251 3.63508 8.11654 3.66845 8.37604C3.462 8.66494 3.45023 9.11339 3.3342 9.47938C2.81167 11.127 3.00874 13.175 3.76884 14.3944C4.0021 14.7687 4.55144 15.5716 5.30678 15.2637C5.96753 14.9945 5.81992 14.1605 6.00894 13.4247C6.05169 13.2579 6.02548 13.1353 6.10919 13.0235C6.10919 13.0346 6.10919 13.0458 6.10919 13.057C6.30983 13.4582 6.51047 13.8594 6.71111 14.2605C7.15647 14.9778 7.94697 15.7275 8.61681 16.2334C8.96416 16.4957 9.23764 16.9492 9.68673 17.1026C9.68673 17.0915 9.68673 17.0805 9.68673 17.0691C9.67541 17.0691 9.66439 17.0691 9.65322 17.0691C9.56623 16.9334 9.43009 16.8773 9.31897 16.7682C9.05726 16.5118 8.76636 16.1928 8.54993 15.899C7.94071 15.0718 7.40225 14.1665 6.91174 13.2241C6.67744 12.7742 6.47382 12.2778 6.27631 11.8198C6.2002 11.6433 6.20109 11.3763 6.04246 11.2849C5.82618 11.6204 5.50757 11.8917 5.34029 12.2879C5.07278 12.9213 5.03822 13.6937 4.93916 14.4946C4.88048 14.5156 4.90654 14.5012 4.87214 14.528C4.40651 14.4157 4.24281 13.9363 4.06988 13.5251C3.6321 12.4851 3.55078 10.8103 3.93597 9.6132C4.03562 9.30351 4.48605 8.3279 4.30373 8.04178C4.21674 7.75624 3.92956 7.59114 3.76884 7.37295C3.56999 7.10326 3.37144 6.74819 3.23381 6.43675C2.87557 5.62581 2.7083 4.7155 2.33115 3.89583C2.15092 3.50395 1.84601 3.10742 1.59562 2.75905C1.31842 2.37315 1.008 2.0889 0.793215 1.62213C0.716802 1.4563 0.612982 1.19082 0.726335 1.02034C0.762382 0.905277 0.813175 0.857284 0.926975 0.819748C1.12091 0.670216 1.66101 0.869499 1.86299 0.953433C2.39922 1.17613 2.84668 1.38821 3.30083 1.68904C3.5189 1.83362 3.73935 2.11319 4.00285 2.19059C4.10309 2.19059 4.20349 2.19059 4.30373 2.19059C4.77442 2.2988 5.30172 2.22419 5.74142 2.35771C6.51866 2.59395 7.21516 2.96139 7.84776 3.36082C9.77491 4.57762 11.3505 6.30977 12.4284 8.37604C12.6017 8.70872 12.6768 9.02627 12.8295 9.37915C13.1377 10.0908 13.5258 10.823 13.8324 11.5189C14.1383 12.2132 14.4365 12.9139 14.8689 13.4916C15.0964 13.7954 15.9745 13.9583 16.3735 14.1269C16.6533 14.2451 17.1116 14.3683 17.3766 14.528C17.8827 14.8334 18.3731 15.1968 18.8478 15.5312C19.0851 15.6983 19.8143 16.0649 19.8507 16.367Z" fill="#00618A"/>
<path fill-rule="evenodd" clip-rule="evenodd" d="M4.90563 3.62824C4.66045 3.62373 4.48707 3.65501 4.30371 3.69502C4.30371 3.7062 4.30371 3.7174 4.30371 3.72847C4.31488 3.72847 4.32605 3.72847 4.33723 3.72847C4.45415 3.96876 4.6606 4.12339 4.80523 4.33039C4.91665 4.56444 5.02807 4.79849 5.13963 5.03239C5.15066 5.02132 5.16198 5.01014 5.173 4.99907C5.38004 4.85317 5.47493 4.61972 5.47388 4.26348C5.39092 4.17619 5.3787 4.06667 5.30676 3.96251C5.21113 3.82374 5.02613 3.7449 4.90563 3.62824Z" fill="#00618A"/>
</svg>
