<svg width="135" height="21" viewBox="0 0 135 21" fill="none" xmlns="http://www.w3.org/2000/svg">
<path d="M17.056 7.422C16.776 7.10467 16.4027 6.848 15.936 6.652C15.4693 6.456 14.9373 6.358 14.34 6.358C13.4627 6.358 12.8233 6.526 12.422 6.862C12.0207 7.18867 11.82 7.63667 11.82 8.206C11.82 8.50467 11.8713 8.752 11.974 8.948C12.086 9.13467 12.254 9.298 12.478 9.438C12.702 9.578 12.9867 9.69933 13.332 9.802C13.6867 9.90467 14.102 10.0073 14.578 10.11C15.11 10.222 15.586 10.348 16.006 10.488C16.4353 10.628 16.7993 10.8053 17.098 11.02C17.3967 11.2253 17.6253 11.4773 17.784 11.776C17.9427 12.0747 18.022 12.448 18.022 12.896C18.022 13.3533 17.9333 13.75 17.756 14.086C17.5787 14.422 17.3313 14.702 17.014 14.926C16.6967 15.15 16.3187 15.318 15.88 15.43C15.4413 15.5327 14.9607 15.584 14.438 15.584C12.898 15.584 11.568 15.1033 10.448 14.142L10.938 13.344C11.1153 13.5307 11.3253 13.708 11.568 13.876C11.82 14.044 12.0953 14.1933 12.394 14.324C12.702 14.4453 13.0287 14.5433 13.374 14.618C13.7193 14.6833 14.0833 14.716 14.466 14.716C15.2593 14.716 15.8753 14.576 16.314 14.296C16.762 14.0067 16.986 13.5727 16.986 12.994C16.986 12.686 16.9207 12.4293 16.79 12.224C16.6687 12.0093 16.482 11.8273 16.23 11.678C15.978 11.5193 15.6653 11.384 15.292 11.272C14.9187 11.16 14.4847 11.048 13.99 10.936C13.4673 10.8147 13.01 10.6887 12.618 10.558C12.226 10.4273 11.8947 10.264 11.624 10.068C11.3533 9.872 11.148 9.63867 11.008 9.368C10.8773 9.088 10.812 8.74733 10.812 8.346C10.812 7.88867 10.896 7.48267 11.064 7.128C11.2413 6.764 11.4887 6.46533 11.806 6.232C12.1233 5.98933 12.4967 5.80733 12.926 5.686C13.3553 5.55533 13.8313 5.49 14.354 5.49C15.0167 5.49 15.6047 5.59267 16.118 5.798C16.6407 5.994 17.112 6.274 17.532 6.638L17.056 7.422ZM20.9399 15.5V5.56H25.0559C25.4852 5.56 25.8772 5.65333 26.2319 5.84C26.5959 6.01733 26.9086 6.25533 27.1699 6.554C27.4312 6.84333 27.6366 7.17467 27.7859 7.548C27.9352 7.92133 28.0099 8.29933 28.0099 8.682C28.0099 9.09267 27.9399 9.48933 27.7999 9.872C27.6599 10.2453 27.4639 10.5767 27.2119 10.866C26.9599 11.1553 26.6566 11.3887 26.3019 11.566C25.9566 11.7433 25.5692 11.832 25.1399 11.832H21.9199V15.5H20.9399ZM21.9199 10.964H25.0979C25.3872 10.964 25.6486 10.9033 25.8819 10.782C26.1246 10.6513 26.3299 10.4833 26.4979 10.278C26.6659 10.0633 26.7966 9.82067 26.8899 9.55C26.9832 9.27 27.0299 8.98067 27.0299 8.682C27.0299 8.374 26.9739 8.08467 26.8619 7.814C26.7592 7.534 26.6146 7.29133 26.4279 7.086C26.2506 6.88067 26.0359 6.722 25.7839 6.61C25.5412 6.48867 25.2846 6.428 25.0139 6.428H21.9199V10.964ZM37.5169 14.632V15.5H30.8389V5.56H37.3909V6.428H31.8189V10.012H36.6769V10.838H31.8189V14.632H37.5169ZM40.5601 15.5V5.56H44.7601C45.1895 5.56 45.5815 5.65333 45.9361 5.84C46.3001 6.01733 46.6128 6.25533 46.8741 6.554C47.1355 6.84333 47.3361 7.17467 47.4761 7.548C47.6255 7.92133 47.7001 8.29933 47.7001 8.682C47.7001 9.046 47.6441 9.396 47.5321 9.732C47.4295 10.0587 47.2801 10.3573 47.0841 10.628C46.8975 10.8893 46.6688 11.1133 46.3981 11.3C46.1275 11.4773 45.8241 11.5987 45.4881 11.664L47.9241 15.5H46.8181L44.4801 11.832H41.5401V15.5H40.5601ZM41.5401 10.964H44.7881C45.0775 10.964 45.3388 10.9033 45.5721 10.782C45.8148 10.6513 46.0201 10.4787 46.1881 10.264C46.3561 10.0493 46.4868 9.80667 46.5801 9.536C46.6735 9.26533 46.7201 8.98067 46.7201 8.682C46.7201 8.38333 46.6641 8.09867 46.5521 7.828C46.4495 7.548 46.3048 7.30533 46.1181 7.1C45.9408 6.89467 45.7261 6.73133 45.4741 6.61C45.2315 6.48867 44.9748 6.428 44.7041 6.428H41.5401V10.964ZM50.8966 15.5V5.56H51.8766V15.5H50.8966ZM56.5393 7.38V15.5H55.5593V5.56H56.3153L62.8953 13.834V5.574H63.8753V15.5H63.0213L56.5393 7.38ZM67.5637 15.5V5.56H68.5437V15.5H67.5637ZM72.0164 15.5V5.56H78.6944V7.254H73.9484V9.816H77.8964V11.384H73.9484V15.5H72.0164ZM82.9797 5.56H84.6877L88.4677 15.5H86.4797L85.5557 13.022H82.0837L81.1737 15.5H79.1857L82.9797 5.56ZM85.2057 11.664L83.8337 7.758L82.4057 11.664H85.2057ZM98.756 12.938C98.756 13.358 98.672 13.7267 98.504 14.044C98.336 14.3613 98.1026 14.6273 97.804 14.842C97.5146 15.0567 97.174 15.22 96.782 15.332C96.3993 15.444 95.9886 15.5 95.55 15.5H90.748V5.56H96.068C96.4133 5.56 96.726 5.63467 97.006 5.784C97.286 5.93333 97.524 6.12933 97.72 6.372C97.916 6.60533 98.0653 6.876 98.168 7.184C98.28 7.48267 98.336 7.786 98.336 8.094C98.336 8.57933 98.2146 9.03667 97.972 9.466C97.7293 9.886 97.3746 10.1987 96.908 10.404C97.4773 10.572 97.9253 10.8753 98.252 11.314C98.588 11.7433 98.756 12.2847 98.756 12.938ZM96.81 12.574C96.81 12.3967 96.7773 12.2287 96.712 12.07C96.656 11.902 96.5766 11.7573 96.474 11.636C96.3713 11.5147 96.25 11.4213 96.11 11.356C95.97 11.2813 95.816 11.244 95.648 11.244H92.68V13.862H95.55C95.7273 13.862 95.8906 13.8293 96.04 13.764C96.1986 13.6987 96.334 13.61 96.446 13.498C96.558 13.3767 96.6466 13.2367 96.712 13.078C96.7773 12.9193 96.81 12.7513 96.81 12.574ZM92.68 7.212V9.718H95.256C95.5826 9.718 95.858 9.606 96.082 9.382C96.3153 9.158 96.432 8.85 96.432 8.458C96.432 8.07533 96.3246 7.772 96.11 7.548C95.9046 7.324 95.648 7.212 95.34 7.212H92.68ZM101.454 15.5V5.56H103.386V15.5H101.454ZM110.891 15.57C110.163 15.57 109.501 15.43 108.903 15.15C108.315 14.8607 107.807 14.4827 107.377 14.016C106.957 13.54 106.631 12.9987 106.397 12.392C106.164 11.7853 106.047 11.1647 106.047 10.53C106.047 9.86733 106.169 9.23267 106.411 8.626C106.663 8.01933 107.004 7.48267 107.433 7.016C107.872 6.54933 108.39 6.18067 108.987 5.91C109.585 5.63 110.233 5.49 110.933 5.49C111.652 5.49 112.305 5.63933 112.893 5.938C113.491 6.22733 113.999 6.61 114.419 7.086C114.839 7.562 115.166 8.10333 115.399 8.71C115.633 9.31667 115.749 9.93267 115.749 10.558C115.749 11.2207 115.628 11.8553 115.385 12.462C115.143 13.0593 114.807 13.5913 114.377 14.058C113.948 14.5153 113.435 14.884 112.837 15.164C112.24 15.4347 111.591 15.57 110.891 15.57ZM108.007 10.53C108.007 10.9593 108.073 11.3747 108.203 11.776C108.334 12.1773 108.521 12.532 108.763 12.84C109.015 13.148 109.319 13.3953 109.673 13.582C110.037 13.7687 110.448 13.862 110.905 13.862C111.372 13.862 111.783 13.7687 112.137 13.582C112.501 13.386 112.805 13.1293 113.047 12.812C113.299 12.4947 113.486 12.14 113.607 11.748C113.738 11.3467 113.803 10.9407 113.803 10.53C113.803 10.1007 113.733 9.68533 113.593 9.284C113.463 8.88267 113.271 8.528 113.019 8.22C112.777 7.912 112.473 7.66933 112.109 7.492C111.755 7.30533 111.353 7.212 110.905 7.212C110.439 7.212 110.023 7.31 109.659 7.506C109.295 7.69267 108.992 7.94467 108.749 8.262C108.507 8.57 108.32 8.92467 108.189 9.326C108.068 9.718 108.007 10.1193 108.007 10.53ZM118.141 17.194V15.5H123.279V17.194H118.141Z" fill="white"/>
<rect x="0.5" y="0.5" width="134" height="20" stroke="white"/>
</svg>
